<?xml version="1.0" encoding="UTF-8"?>
<svg xmlns="http://www.w3.org/2000/svg" width="259.29" height="274.48" viewBox="0 0 259.29 274.48">
  <defs>
    <style>
      .b71b6518-dedf-44e8-af68-09a7fd8f108c {
        fill: #0b336a;
      }
    </style>
  </defs>
  <g id="a385eaf2-1869-4c24-85af-11a80a287dc0" data-name="Layer 2">
    <g id="b0315aab-9294-4ee4-9ac3-c679a2bc2fde" data-name="Layer 1">
      <path class="b71b6518-dedf-44e8-af68-09a7fd8f108c" d="M129.63,274.48H4.67c-1,0-2.06,0-3.09,0-1.24,0-1.71-.44-1.55-1.75.91-7.73,1.75-15.47,2.63-23.2.58-5,1.42-10.07,1.69-15.14a10.07,10.07,0,0,1,4.53-8,89.74,89.74,0,0,1,14-8.14q12.9-6.33,25.91-12.5c10.24-4.84,19.49-11.25,28.55-18,7-5.17,13.73-10.64,20.42-16.18a5,5,0,0,0,1.85-3.76,21.11,21.11,0,0,0-5-16.45c-5.55-6.85-9.19-15-13.33-22.8-1.9-3.58-4.64-6.64-6.11-10.48a107.77,107.77,0,0,1-5.14-17,8.81,8.81,0,0,1,3-9,6.29,6.29,0,0,0,2.19-5.4c-.1-7.73-.31-15.46,0-23.18C76,46.41,82.54,32.3,97.45,22.94c7.27-4.56,15.39-6.84,23.87-7.75a73.3,73.3,0,0,1,26.05,1.73c19.9,5,33,19.39,36.13,39.71a58.14,58.14,0,0,1,.69,9c0,7.4,0,14.81,0,22.21a4,4,0,0,0,1.39,3.4,10.19,10.19,0,0,1,3.5,11.22c-1.59,6.12-2.79,12.48-6.1,17.84-6.56,10.62-11.61,22.12-18.89,32.31a3.22,3.22,0,0,1-.44.63c-5.23,4.39-3.69,10.37-3.7,15.95,0,1.43,1.4,2.1,2.36,2.9,6.94,5.75,13.95,11.42,21.23,16.73,7.49,5.46,15,10.87,23.36,15,8.82,4.39,17.75,8.53,26.62,12.81,4.64,2.25,9.13,4.76,13.61,7.3,5,2.85,7.89,6.6,8.32,12.79.81,11.54,2.45,23,3.74,34.52,0,.25,0,.51.06.77.18,2.41.18,2.42-2.31,2.42ZM133.55,162a26.65,26.65,0,0,0,17.06-6.09c6.59-5.24,10.62-12.32,13.82-19.93,3.62-8.6,5.59-17.65,7.13-26.8,2.62-15.54,4-31.13,1.34-46.82a49.87,49.87,0,0,0-4.37-14.15c-.69-1.36-1.39-2.7-3-3.35a52.48,52.48,0,0,0-18-4,55.54,55.54,0,0,0-31.88,8.83,2.49,2.49,0,0,1-3.38-.16,19.09,19.09,0,0,0-7.6-3.65c-6.44-1.35-11.89,1.79-15,8.37-4.29,9-5.44,18.71-5.82,28.54a132.8,132.8,0,0,0,.83,18.49c.63,6.21,1.18,12.49,3.07,18.43A87.2,87.2,0,0,0,100,144.51c5.08,7,11.1,13,19.56,16C124.32,162.18,129.27,161.17,133.55,162ZM224,15.71c0-4.57,0-9.14,0-13.71,0-1.34-.41-2-1.88-2Q208.57.07,195,0C193.54,0,193,.55,193,2c.05,2,.09,4,0,6-.08,1.71.49,2.4,2.31,2.37,5.4-.1,10.81,0,16.21-.07,1.74,0,2.37.46,2.34,2.28-.11,5.47,0,10.94-.07,16.41,0,1.61.61,2.18,2.16,2.13,2.12-.07,4.24-.06,6.37,0,1.32,0,1.78-.46,1.76-1.83-.08-4.5,0-9,0-13.51Zm-188.7,13c0,1.82.66,2.41,2.37,2.32s3.74-.09,5.6,0,2.36-.58,2.33-2.36c-.1-5.08,0-10.17,0-15.25,0-3.19,0-3.19,3.1-3.19,5.21,0,10.42,0,15.64,0,1.5,0,2.1-.53,2-2-.07-2.06-.08-4.12,0-6.18C66.44.45,65.72,0,64.18,0Q50.85.09,37.53,0c-1.73,0-2.22.65-2.19,2.28.07,4.37,0,8.75,0,13.13S35.43,24.29,35.33,28.73Zm28.58,160c1.8,0,2.6-.49,2.48-2.39a47.39,47.39,0,0,1,0-5.59c.09-1.76-.59-2.35-2.36-2.32-5.33.09-10.67-.05-16,.08-2,.05-2.51-.64-2.47-2.54.12-5.34,0-10.68.08-16,0-1.8-.63-2.41-2.36-2.32-1.92.1-3.86.09-5.79,0-1.56-.06-2.15.52-2.14,2.12q.09,13.41,0,26.81c0,1.6.57,2.16,2.14,2.13,4.44-.06,8.87,0,13.31,0S59.54,188.66,63.91,188.76Zm158.11,0c1.32,0,2-.35,2-1.83q0-13.71,0-27.4c0-1.34-.58-1.84-1.87-1.81-2.06,0-4.12.08-6.17,0-1.7-.08-2.24.59-2.22,2.26.08,5.46,0,10.93.06,16.4,0,1.69-.5,2.23-2.2,2.2-5.53-.09-11.06,0-16.59-.05-1.49,0-2.11.51-2.05,2,.07,1.86,0,3.73,0,5.6,0,2.57.07,2.63,2.57,2.63h12.92C213,188.72,217.52,188.7,222,188.73Zm-65.83-60.29c-1.8-.8-3.21.5-4.73,1.43l-15.66,9.55a4.72,4.72,0,0,0-2.45,2.79,3.45,3.45,0,0,1-3.68,2.53,3.51,3.51,0,0,1-3.66-2.58,4.44,4.44,0,0,0-2.31-2.65q-8.16-5-16.29-10a5.7,5.7,0,0,0-4.28-1.16c-2.16.39-4.19-1.63-4.25-3.78a3.75,3.75,0,0,1,3.83-4,6.67,6.67,0,0,0,4.4-1.56c5.67-4.13,11.37-8.22,17-12.34,1.8-1.31,1.76-1.33-.07-2.37q-12.37-6.94-24.71-14a4.46,4.46,0,0,0-3.44-.68,3.75,3.75,0,0,1-4.53-3.14A3.68,3.68,0,0,1,94.64,82a3.79,3.79,0,0,0,2.59-1.41c3.39-4.05,6.82-8.06,10.24-12.07a3.17,3.17,0,0,0,1-2.55A3.73,3.73,0,0,1,110.78,62a3.69,3.69,0,0,1,4.46.71,3.19,3.19,0,0,0,2.6.85q12-.07,23.94,0a2.79,2.79,0,0,0,2.25-.76A4,4,0,0,1,150.88,66a3,3,0,0,0,.81,2.26q5.2,6.09,10.36,12.22a3.88,3.88,0,0,0,2.57,1.47A3.93,3.93,0,0,1,168,86.68a3.84,3.84,0,0,1-4.67,3,4.14,4.14,0,0,0-3.1.57q-12.27,6.93-24.56,13.83c-2.22,1.26-2.24,1.31-.13,2.83,5.73,4.16,11.48,8.29,17.2,12.45a5.75,5.75,0,0,0,3.74,1.23,3.74,3.74,0,0,1,4,4A4,4,0,0,1,156.19,128.44Zm-26.48-61c-2.77,0-5.53,0-8.3,0-2.52,0-5.15-.49-7.22,1.67a2.87,2.87,0,0,1-1.63.51,2.78,2.78,0,0,0-1.79,1c-3.63,4.26-7.27,8.5-10.87,12.78-1.08,1.28-.77,2.27.7,3.09,8.36,4.68,16.67,9.45,25.07,14.06a8.23,8.23,0,0,0,8,0c8.35-4.56,16.61-9.29,24.89-14,1.91-1.08,2-1.79.66-3.45-2.43-2.92-4.8-5.89-7.35-8.69-1.92-2.12-3.26-5.06-6.72-5.3a1.72,1.72,0,0,1-.94-.64,3.39,3.39,0,0,0-2.94-1.09C137.43,67.49,133.57,67.47,129.71,67.47Zm.12,41.71a4.37,4.37,0,0,0-3.21.62c-6.09,4.42-12.21,8.8-18.31,13.22-1.63,1.18-1.61,1.41.17,2.51,5.91,3.64,11.77,7.39,17.8,10.84a7,7,0,0,0,6.92-.08c6-3.47,11.78-7.13,17.65-10.72,1.92-1.17,1.92-1.28.13-2.57-5.84-4.22-11.7-8.42-17.52-12.66C132.32,109.51,131.21,108.83,129.83,109.18Z"></path>
    </g>
  </g>
</svg>
