<?xml version="1.0" encoding="UTF-8" standalone="no"?><svg xmlns="http://www.w3.org/2000/svg" xmlns:xlink="http://www.w3.org/1999/xlink" contentStyleType="text/css" height="571px" preserveAspectRatio="none" style="width:2739px;height:571px;background:#FFFFFF;" version="1.1" viewBox="0 0 2739 571" width="2739px" zoomAndPan="magnify"><defs/><g><rect fill="none" height="26.2969" id="_title" style="stroke:none;stroke-width:1.0;" width="366" x="1179.75" y="5"/><text fill="#000000" font-family="sans-serif" font-size="14" font-weight="bold" lengthAdjust="spacing" textLength="356" x="1184.75" y="22.9951">Face Recognition Project End-to-End Diagram</text><!--MD5=[0fdfdbbba59e735a0f59cfd2cadfe66f]
cluster Training the Face Recognition Model--><g id="cluster_Training the Face Recognition Model"><path d="M8.5,43.2969 L296.5,43.2969 A3.75,3.75 0 0 1 299,45.7969 L306,65.5938 L306.5,65.5938 A2.5,2.5 0 0 1 309,68.0938 L309,561.7969 A2.5,2.5 0 0 1 306.5,564.2969 L8.5,564.2969 A2.5,2.5 0 0 1 6,561.7969 L6,45.7969 A2.5,2.5 0 0 1 8.5,43.2969 " fill="#F0F8FF" style="stroke:#000000;stroke-width:1.5;"/><line style="stroke:#000000;stroke-width:1.5;" x1="6" x2="306" y1="65.5938" y2="65.5938"/><text fill="#000000" font-family="sans-serif" font-size="14" font-weight="bold" lengthAdjust="spacing" textLength="287" x="10" y="58.292">Training the Face Recognition Model</text></g><!--MD5=[9581351d4a2028020f5e3315621c6150]
cluster Web Application--><g id="cluster_Web Application"><path d="M892.5,43.2969 L1020.5,43.2969 A3.75,3.75 0 0 1 1023,45.7969 L1030,65.5938 L1281.5,65.5938 A2.5,2.5 0 0 1 1284,68.0938 L1284,349.7969 A2.5,2.5 0 0 1 1281.5,352.2969 L892.5,352.2969 A2.5,2.5 0 0 1 890,349.7969 L890,45.7969 A2.5,2.5 0 0 1 892.5,43.2969 " fill="#F0F8FF" style="stroke:#000000;stroke-width:1.5;"/><line style="stroke:#000000;stroke-width:1.5;" x1="890" x2="1030" y1="65.5938" y2="65.5938"/><text fill="#000000" font-family="sans-serif" font-size="14" font-weight="bold" lengthAdjust="spacing" textLength="127" x="894" y="58.292">Web Application</text></g><!--MD5=[c8ffe1ebc5ac90f537fe46e912343a18]
cluster Deployment--><g id="cluster_Deployment"><path d="M1310.5,149.2969 L1405.5,149.2969 A3.75,3.75 0 0 1 1408,151.7969 L1415,171.5938 L1491.5,171.5938 A2.5,2.5 0 0 1 1494,174.0938 L1494,349.7969 A2.5,2.5 0 0 1 1491.5,352.2969 L1310.5,352.2969 A2.5,2.5 0 0 1 1308,349.7969 L1308,151.7969 A2.5,2.5 0 0 1 1310.5,149.2969 " fill="#F0F8FF" style="stroke:#000000;stroke-width:1.5;"/><line style="stroke:#000000;stroke-width:1.5;" x1="1308" x2="1415" y1="171.5938" y2="171.5938"/><text fill="#000000" font-family="sans-serif" font-size="14" font-weight="bold" lengthAdjust="spacing" textLength="94" x="1312" y="164.292">Deployment</text></g><!--MD5=[3f8077c99ae31066b88b1200bd4ca619]
entity DG--><g id="elem_DG"><rect fill="#FFD700" height="46.2969" rx="2.5" ry="2.5" style="stroke:#181818;stroke-width:0.5;" width="144" x="138" y="78.2969"/><rect fill="#FFD700" height="10" style="stroke:#181818;stroke-width:0.5;" width="15" x="262" y="83.2969"/><rect fill="#FFD700" height="2" style="stroke:#181818;stroke-width:0.5;" width="4" x="260" y="85.2969"/><rect fill="#FFD700" height="2" style="stroke:#181818;stroke-width:0.5;" width="4" x="260" y="89.2969"/><text fill="#000000" font-family="sans-serif" font-size="14" lengthAdjust="spacing" textLength="104" x="153" y="111.292">Data Gathering</text></g><!--MD5=[ea87969fc35f1ca5453e0a1ca338bac3]
entity DP--><g id="elem_DP"><rect fill="#FFA07A" height="46.2969" rx="2.5" ry="2.5" style="stroke:#181818;stroke-width:0.5;" width="176" x="114" y="184.2969"/><rect fill="#FFA07A" height="10" style="stroke:#181818;stroke-width:0.5;" width="15" x="270" y="189.2969"/><rect fill="#FFA07A" height="2" style="stroke:#181818;stroke-width:0.5;" width="4" x="268" y="191.2969"/><rect fill="#FFA07A" height="2" style="stroke:#181818;stroke-width:0.5;" width="4" x="268" y="195.2969"/><text fill="#000000" font-family="sans-serif" font-size="14" lengthAdjust="spacing" textLength="136" x="129" y="217.292">Data Preprocessing</text></g><!--MD5=[91973c96897d1b47acf069d2375b565a]
entity FE--><g id="elem_FE"><rect fill="#87CEEB" height="46.2969" rx="2.5" ry="2.5" style="stroke:#181818;stroke-width:0.5;" width="180" x="111" y="290.2969"/><rect fill="#87CEEB" height="10" style="stroke:#181818;stroke-width:0.5;" width="15" x="271" y="295.2969"/><rect fill="#87CEEB" height="2" style="stroke:#181818;stroke-width:0.5;" width="4" x="269" y="297.2969"/><rect fill="#87CEEB" height="2" style="stroke:#181818;stroke-width:0.5;" width="4" x="269" y="301.2969"/><text fill="#000000" font-family="sans-serif" font-size="14" lengthAdjust="spacing" textLength="140" x="126" y="323.292">Feature Engineering</text></g><!--MD5=[27a305f6159a620967c6a9ff626f0c49]
entity ML--><g id="elem_ML"><rect fill="#98FB98" height="46.2969" rx="2.5" ry="2.5" style="stroke:#181818;stroke-width:0.5;" width="207" x="85.5" y="396.2969"/><rect fill="#98FB98" height="10" style="stroke:#181818;stroke-width:0.5;" width="15" x="272.5" y="401.2969"/><rect fill="#98FB98" height="2" style="stroke:#181818;stroke-width:0.5;" width="4" x="270.5" y="403.2969"/><rect fill="#98FB98" height="2" style="stroke:#181818;stroke-width:0.5;" width="4" x="270.5" y="407.2969"/><text fill="#000000" font-family="sans-serif" font-size="14" lengthAdjust="spacing" textLength="167" x="100.5" y="429.292">Machine Learning Model</text></g><!--MD5=[04b39d228c74a38ee40eb037136f5abb]
entity CMLP--><g id="elem_CMLP"><rect fill="#FFB6C1" height="46.2969" rx="2.5" ry="2.5" style="stroke:#181818;stroke-width:0.5;" width="167" x="105.5" y="502.2969"/><rect fill="#FFB6C1" height="10" style="stroke:#181818;stroke-width:0.5;" width="15" x="252.5" y="507.2969"/><rect fill="#FFB6C1" height="2" style="stroke:#181818;stroke-width:0.5;" width="4" x="250.5" y="509.2969"/><rect fill="#FFB6C1" height="2" style="stroke:#181818;stroke-width:0.5;" width="4" x="250.5" y="513.2969"/><text fill="#000000" font-family="sans-serif" font-size="14" lengthAdjust="spacing" textLength="127" x="120.5" y="535.292">Create ML Pipeline</text></g><!--MD5=[745383965df552ee196eed28c44c08f6]
entity Flask--><g id="elem_Flask"><rect fill="#ADD8E6" height="46.2969" rx="2.5" ry="2.5" style="stroke:#181818;stroke-width:0.5;" width="150" x="1107" y="78.2969"/><rect fill="#ADD8E6" height="10" style="stroke:#181818;stroke-width:0.5;" width="15" x="1237" y="83.2969"/><rect fill="#ADD8E6" height="2" style="stroke:#181818;stroke-width:0.5;" width="4" x="1235" y="85.2969"/><rect fill="#ADD8E6" height="2" style="stroke:#181818;stroke-width:0.5;" width="4" x="1235" y="89.2969"/><text fill="#000000" font-family="sans-serif" font-size="14" lengthAdjust="spacing" textLength="110" x="1122" y="111.292">Flask (Backend)</text></g><!--MD5=[972dfe21fb2df9d6c219ecc220e9e26e]
entity HTML--><g id="elem_HTML"><rect fill="#FFE4B5" height="46.2969" rx="2.5" ry="2.5" style="stroke:#181818;stroke-width:0.5;" width="155" x="906.5" y="184.2969"/><rect fill="#FFE4B5" height="10" style="stroke:#181818;stroke-width:0.5;" width="15" x="1041.5" y="189.2969"/><rect fill="#FFE4B5" height="2" style="stroke:#181818;stroke-width:0.5;" width="4" x="1039.5" y="191.2969"/><rect fill="#FFE4B5" height="2" style="stroke:#181818;stroke-width:0.5;" width="4" x="1039.5" y="195.2969"/><text fill="#000000" font-family="sans-serif" font-size="14" lengthAdjust="spacing" textLength="115" x="921.5" y="217.292">HTML (Frontend)</text></g><!--MD5=[3d3cd76ac90e577366be3a1431c06e0a]
entity Bootstrap--><g id="elem_Bootstrap"><rect fill="#FFC0CB" height="46.2969" rx="2.5" ry="2.5" style="stroke:#181818;stroke-width:0.5;" width="167" x="1004.5" y="290.2969"/><rect fill="#FFC0CB" height="10" style="stroke:#181818;stroke-width:0.5;" width="15" x="1151.5" y="295.2969"/><rect fill="#FFC0CB" height="2" style="stroke:#181818;stroke-width:0.5;" width="4" x="1149.5" y="297.2969"/><rect fill="#FFC0CB" height="2" style="stroke:#181818;stroke-width:0.5;" width="4" x="1149.5" y="301.2969"/><text fill="#000000" font-family="sans-serif" font-size="14" lengthAdjust="spacing" textLength="127" x="1019.5" y="323.292">Bootstrap (Styling)</text></g><!--MD5=[3cb8ed84c2d609545a687dc5d3c5e8a7]
entity IntegrateML--><g id="elem_IntegrateML"><rect fill="#90EE90" height="46.2969" rx="2.5" ry="2.5" style="stroke:#181818;stroke-width:0.5;" width="171" x="1096.5" y="184.2969"/><rect fill="#90EE90" height="10" style="stroke:#181818;stroke-width:0.5;" width="15" x="1247.5" y="189.2969"/><rect fill="#90EE90" height="2" style="stroke:#181818;stroke-width:0.5;" width="4" x="1245.5" y="191.2969"/><rect fill="#90EE90" height="2" style="stroke:#181818;stroke-width:0.5;" width="4" x="1245.5" y="195.2969"/><text fill="#000000" font-family="sans-serif" font-size="14" lengthAdjust="spacing" textLength="131" x="1111.5" y="217.292">Integrate ML Model</text></g><!--MD5=[4e0dc9adae3eca7e83ec158e4ca5b279]
entity Heroku--><g id="elem_Heroku"><rect fill="#DDA0DD" height="46.2969" rx="2.5" ry="2.5" style="stroke:#181818;stroke-width:0.5;" width="134" x="1334" y="290.2969"/><rect fill="#DDA0DD" height="10" style="stroke:#181818;stroke-width:0.5;" width="15" x="1448" y="295.2969"/><rect fill="#DDA0DD" height="2" style="stroke:#181818;stroke-width:0.5;" width="4" x="1446" y="297.2969"/><rect fill="#DDA0DD" height="2" style="stroke:#181818;stroke-width:0.5;" width="4" x="1446" y="301.2969"/><text fill="#000000" font-family="sans-serif" font-size="14" lengthAdjust="spacing" textLength="94" x="1349" y="323.292">Heroku Cloud</text></g><!--MD5=[0956dc2ede97ece13fba9b8d639a8dcb]
entity Deploy--><g id="elem_Deploy"><rect fill="#FFA07A" height="46.2969" rx="2.5" ry="2.5" style="stroke:#181818;stroke-width:0.5;" width="154" x="1324" y="184.2969"/><rect fill="#FFA07A" height="10" style="stroke:#181818;stroke-width:0.5;" width="15" x="1458" y="189.2969"/><rect fill="#FFA07A" height="2" style="stroke:#181818;stroke-width:0.5;" width="4" x="1456" y="191.2969"/><rect fill="#FFA07A" height="2" style="stroke:#181818;stroke-width:0.5;" width="4" x="1456" y="195.2969"/><text fill="#000000" font-family="sans-serif" font-size="14" lengthAdjust="spacing" textLength="114" x="1339" y="217.292">Deploy Web App</text></g><g id="elem_GMN162"><path d="M325.5,88.7969 L325.5,97.2969 L282.11,101.2969 L325.5,105.2969 L325.5,113.9297 A0,0 0 0 0 325.5,113.9297 L856.5,113.9297 A0,0 0 0 0 856.5,113.9297 L856.5,98.7969 L846.5,88.7969 L325.5,88.7969 A0,0 0 0 0 325.5,88.7969 " fill="#FEFFDD" style="stroke:#181818;stroke-width:0.5;"/><path d="M846.5,88.7969 L846.5,98.7969 L856.5,98.7969 L846.5,88.7969 " fill="#FEFFDD" style="stroke:#181818;stroke-width:0.5;"/><text fill="#000000" font-family="sans-serif" font-size="13" lengthAdjust="spacing" textLength="510" x="331.5" y="105.8638">Data Gathering: Collecting a diverse and representative dataset of face images.</text></g><g id="elem_GMN165"><path d="M325.5,194.7969 L325.5,203.2969 L290.27,207.2969 L325.5,211.2969 L325.5,219.9297 A0,0 0 0 0 325.5,219.9297 L856.5,219.9297 A0,0 0 0 0 856.5,219.9297 L856.5,204.7969 L846.5,194.7969 L325.5,194.7969 A0,0 0 0 0 325.5,194.7969 " fill="#FEFFDD" style="stroke:#181818;stroke-width:0.5;"/><path d="M846.5,194.7969 L846.5,204.7969 L856.5,204.7969 L846.5,194.7969 " fill="#FEFFDD" style="stroke:#181818;stroke-width:0.5;"/><text fill="#000000" font-family="sans-serif" font-size="13" lengthAdjust="spacing" textLength="510" x="331.5" y="211.8638">Data Preprocessing: Cleaning, resizing, and normalizing images for consistency.</text></g><g id="elem_GMN168"><path d="M326,300.7969 L326,309.2969 L291.31,313.2969 L326,317.2969 L326,325.9297 A0,0 0 0 0 326,325.9297 L872,325.9297 A0,0 0 0 0 872,325.9297 L872,310.7969 L862,300.7969 L326,300.7969 A0,0 0 0 0 326,300.7969 " fill="#FEFFDD" style="stroke:#181818;stroke-width:0.5;"/><path d="M862,300.7969 L862,310.7969 L872,310.7969 L862,300.7969 " fill="#FEFFDD" style="stroke:#181818;stroke-width:0.5;"/><text fill="#000000" font-family="sans-serif" font-size="13" lengthAdjust="spacing" textLength="525" x="332" y="317.8638">Feature Engineering: Extracting meaningful features to represent faces effectively.</text></g><g id="elem_GMN171"><path d="M328,406.7969 L328,415.2969 L292.53,419.2969 L328,423.2969 L328,431.9297 A0,0 0 0 0 328,431.9297 L842,431.9297 A0,0 0 0 0 842,431.9297 L842,416.7969 L832,406.7969 L328,406.7969 A0,0 0 0 0 328,406.7969 " fill="#FEFFDD" style="stroke:#181818;stroke-width:0.5;"/><path d="M832,406.7969 L832,416.7969 L842,416.7969 L832,406.7969 " fill="#FEFFDD" style="stroke:#181818;stroke-width:0.5;"/><text fill="#000000" font-family="sans-serif" font-size="13" lengthAdjust="spacing" textLength="493" x="334" y="423.8638">Machine Learning Model: Training a model to recognize and distinguish faces.</text></g><g id="elem_GMN174"><path d="M325.5,512.7969 L325.5,521.2969 L272.76,525.2969 L325.5,529.2969 L325.5,537.9297 A0,0 0 0 0 325.5,537.9297 L824.5,537.9297 A0,0 0 0 0 824.5,537.9297 L824.5,522.7969 L814.5,512.7969 L325.5,512.7969 A0,0 0 0 0 325.5,512.7969 " fill="#FEFFDD" style="stroke:#181818;stroke-width:0.5;"/><path d="M814.5,512.7969 L814.5,522.7969 L824.5,522.7969 L814.5,512.7969 " fill="#FEFFDD" style="stroke:#181818;stroke-width:0.5;"/><text fill="#000000" font-family="sans-serif" font-size="13" lengthAdjust="spacing" textLength="478" x="331.5" y="529.8638">Create ML Pipeline: Building a streamlined workflow for training and testing.</text></g><g id="elem_GMN177"><path d="M1300.5,88.7969 L1300.5,97.2969 L1257.29,101.2969 L1300.5,105.2969 L1300.5,113.9297 A0,0 0 0 0 1300.5,113.9297 L1669.5,113.9297 A0,0 0 0 0 1669.5,113.9297 L1669.5,98.7969 L1659.5,88.7969 L1300.5,88.7969 A0,0 0 0 0 1300.5,88.7969 " fill="#FEFFDD" style="stroke:#181818;stroke-width:0.5;"/><path d="M1659.5,88.7969 L1659.5,98.7969 L1669.5,98.7969 L1659.5,88.7969 " fill="#FEFFDD" style="stroke:#181818;stroke-width:0.5;"/><text fill="#000000" font-family="sans-serif" font-size="13" lengthAdjust="spacing" textLength="348" x="1306.5" y="105.8638">Flask: Web Server Gateway Interface for backend logic.</text></g><g id="elem_GMN180"><path d="M1513.5,194.7969 L1513.5,219.9297 L1728.5,219.9297 L1728.5,204.7969 L1718.5,194.7969 L1513.5,194.7969 " fill="#FEFFDD" style="stroke:#181818;stroke-width:0.5;"/><path d="M1718.5,194.7969 L1718.5,204.7969 L1728.5,204.7969 L1718.5,194.7969 " fill="#FEFFDD" style="stroke:#181818;stroke-width:1.0;"/><text fill="#000000" font-family="sans-serif" font-size="13" lengthAdjust="spacing" textLength="194" x="1519.5" y="211.8638">HTML: Layout for the frontend.</text></g><g id="elem_GMN183"><path d="M1510.5,300.7969 L1510.5,325.9297 L1753.5,325.9297 L1753.5,310.7969 L1743.5,300.7969 L1510.5,300.7969 " fill="#FEFFDD" style="stroke:#181818;stroke-width:0.5;"/><path d="M1743.5,300.7969 L1743.5,310.7969 L1753.5,310.7969 L1743.5,300.7969 " fill="#FEFFDD" style="stroke:#181818;stroke-width:1.0;"/><text fill="#000000" font-family="sans-serif" font-size="13" lengthAdjust="spacing" textLength="222" x="1516.5" y="317.8638">Bootstrap: Styling for the frontend.</text></g><g id="elem_GMN186"><path d="M1763.5,194.7969 L1763.5,219.9297 L2196.5,219.9297 L2196.5,204.7969 L2186.5,194.7969 L1763.5,194.7969 " fill="#FEFFDD" style="stroke:#181818;stroke-width:0.5;"/><path d="M2186.5,194.7969 L2186.5,204.7969 L2196.5,204.7969 L2186.5,194.7969 " fill="#FEFFDD" style="stroke:#181818;stroke-width:1.0;"/><text fill="#000000" font-family="sans-serif" font-size="13" lengthAdjust="spacing" textLength="412" x="1769.5" y="211.8638">Integrate ML Model: Loading the trained model into the web app.</text></g><g id="elem_GMN189"><path d="M2231.5,194.7969 L2231.5,219.9297 L2732.5,219.9297 L2732.5,204.7969 L2722.5,194.7969 L2231.5,194.7969 " fill="#FEFFDD" style="stroke:#181818;stroke-width:0.5;"/><path d="M2722.5,194.7969 L2722.5,204.7969 L2732.5,204.7969 L2722.5,194.7969 " fill="#FEFFDD" style="stroke:#181818;stroke-width:1.0;"/><text fill="#000000" font-family="sans-serif" font-size="13" lengthAdjust="spacing" textLength="480" x="2237.5" y="211.8638">Deploy Web App: Uploading and linking the code to Heroku for deployment.</text></g><!--MD5=[629861339694aa720d44da743bbefd2b]
link DG to DP--><g id="link_DG_DP"><path d="M210,124.2969 C210,124.2969 210,178.9769 210,178.9769 " fill="none" id="DG-to-DP" style="stroke:#000080;stroke-width:1.0;"/><polygon fill="#000080" points="210,183.9769,214,174.9769,210,178.9769,206,174.9769,210,183.9769" style="stroke:#000080;stroke-width:1.0;"/><text fill="#000000" font-family="sans-serif" font-size="13" lengthAdjust="spacing" textLength="110" x="99" y="147.7038">Raw Face Images</text></g><!--MD5=[1b865a6ce24a4bad2af120e2c4449962]
link DP to FE--><g id="link_DP_FE"><path d="M202,230.2969 C202,230.2969 202,284.9769 202,284.9769 " fill="none" id="DP-to-FE" style="stroke:#000080;stroke-width:1.0;"/><polygon fill="#000080" points="202,289.9769,206,280.9769,202,284.9769,198,280.9769,202,289.9769" style="stroke:#000080;stroke-width:1.0;"/><text fill="#000000" font-family="sans-serif" font-size="13" lengthAdjust="spacing" textLength="138" x="63" y="253.7038">Preprocessed Images</text></g><!--MD5=[5a00e6c3ee1a06b9109bac7b246876c5]
link FE to ML--><g id="link_FE_ML"><path d="M201,336.2969 C201,336.2969 201,390.9769 201,390.9769 " fill="none" id="FE-to-ML" style="stroke:#000080;stroke-width:1.0;"/><polygon fill="#000080" points="201,395.9769,205,386.9769,201,390.9769,197,386.9769,201,395.9769" style="stroke:#000080;stroke-width:1.0;"/><text fill="#000000" font-family="sans-serif" font-size="13" lengthAdjust="spacing" textLength="121" x="79" y="359.7038">Extracted Features</text></g><!--MD5=[7665baef9326966b14d8bc547a93837d]
link ML to CMLP--><g id="link_ML_CMLP"><path d="M161.17,442.2969 C161.17,442.2969 161.17,496.9769 161.17,496.9769 " fill="none" id="ML-to-CMLP" style="stroke:#000080;stroke-width:1.0;"/><polygon fill="#000080" points="161.17,501.9769,165.17,492.9769,161.17,496.9769,157.17,492.9769,161.17,501.9769" style="stroke:#000080;stroke-width:1.0;"/><text fill="#000000" font-family="sans-serif" font-size="13" lengthAdjust="spacing" textLength="89" x="71.17" y="465.7038">Trained Model</text></g><!--MD5=[7a0dc9d8f2b54399ded9a1aac62854d0]
link CMLP to ML--><g id="link_CMLP_ML"><path d="M216.83,502.2969 C216.83,502.2969 216.83,447.6169 216.83,447.6169 " fill="none" id="CMLP-to-ML" style="stroke:#000080;stroke-width:1.0;"/><polygon fill="#000080" points="216.83,442.6169,212.83,451.6169,216.83,447.6169,220.83,451.6169,216.83,442.6169" style="stroke:#000080;stroke-width:1.0;"/><text fill="#000000" font-family="sans-serif" font-size="13" lengthAdjust="spacing" textLength="98" x="117.83" y="488.0238">Test &amp; Validate</text></g><!--MD5=[492b979b46e191ec86b8b164641525e8]
link Flask to HTML--><g id="link_Flask_HTML"><path d="M1106.86,119.2969 C1050.85,119.2969 984,119.2969 984,119.2969 C984,119.2969 984,179.1769 984,179.1769 " fill="none" id="Flask-to-HTML" style="stroke:#000080;stroke-width:1.0;"/><polygon fill="#000080" points="984,184.1769,988,175.1769,984,179.1769,980,175.1769,984,184.1769" style="stroke:#000080;stroke-width:1.0;"/><text fill="#000000" font-family="sans-serif" font-size="13" lengthAdjust="spacing" textLength="116" x="898.49" y="115.3638">Render Templates</text></g><!--MD5=[8f95569a389f1339c846cd91cec26fb9]
link HTML to Bootstrap--><g id="link_HTML_Bootstrap"><path d="M1023.5,230.2969 C1023.5,230.2969 1023.5,284.9769 1023.5,284.9769 " fill="none" id="HTML-to-Bootstrap" style="stroke:#000080;stroke-width:1.0;"/><polygon fill="#000080" points="1023.5,289.9769,1027.5,280.9769,1023.5,284.9769,1019.5,280.9769,1023.5,289.9769" style="stroke:#000080;stroke-width:1.0;"/><text fill="#000000" font-family="sans-serif" font-size="13" lengthAdjust="spacing" textLength="78" x="944.5" y="253.7038">Apply Styles</text></g><!--MD5=[8bd5ff18dd1b93770c8aed2177425686]
link Flask to IntegrateML--><g id="link_Flask_IntegrateML"><path d="M1157,124.2969 C1157,124.2969 1157,178.9769 1157,178.9769 " fill="none" id="Flask-to-IntegrateML" style="stroke:#000080;stroke-width:1.0;"/><polygon fill="#000080" points="1157,183.9769,1161,174.9769,1157,178.9769,1153,174.9769,1157,183.9769" style="stroke:#000080;stroke-width:1.0;"/><text fill="#000000" font-family="sans-serif" font-size="13" lengthAdjust="spacing" textLength="73" x="1083" y="147.7038">Load Model</text></g><!--MD5=[d30a24fb3272720cc345c1b3e475bb59]
link IntegrateML to Flask--><g id="link_IntegrateML_Flask"><path d="M1207,184.2969 C1207,184.2969 1207,129.6169 1207,129.6169 " fill="none" id="IntegrateML-to-Flask" style="stroke:#000080;stroke-width:1.0;"/><polygon fill="#000080" points="1207,124.6169,1203,133.6169,1207,129.6169,1211,133.6169,1207,124.6169" style="stroke:#000080;stroke-width:1.0;"/><text fill="#000000" font-family="sans-serif" font-size="13" lengthAdjust="spacing" textLength="70" x="1136" y="170.0238">Predictions</text></g><!--MD5=[d4652d1818b401c7960ad5453dff8a24]
link Flask to Deploy--><g id="link_Flask_Deploy"><path d="M1257.06,119.2969 C1320.46,119.2969 1401,119.2969 1401,119.2969 C1401,119.2969 1401,179.1769 1401,179.1769 " fill="none" id="Flask-to-Deploy" style="stroke:#000080;stroke-width:1.0;"/><polygon fill="#000080" points="1401,184.1769,1405,175.1769,1401,179.1769,1397,175.1769,1401,184.1769" style="stroke:#000080;stroke-width:1.0;"/><text fill="#000000" font-family="sans-serif" font-size="13" lengthAdjust="spacing" textLength="68" x="1289.97" y="132.3638">Push Code</text></g><!--MD5=[ba9a28badd1184a89c1ecab3cfd28a67]
link Deploy to Heroku--><g id="link_Deploy_Heroku"><path d="M1401,230.2969 C1401,230.2969 1401,284.9769 1401,284.9769 " fill="none" id="Deploy-to-Heroku" style="stroke:#000080;stroke-width:1.0;"/><polygon fill="#000080" points="1401,289.9769,1405,280.9769,1401,284.9769,1397,280.9769,1401,289.9769" style="stroke:#000080;stroke-width:1.0;"/><text fill="#000000" font-family="sans-serif" font-size="13" lengthAdjust="spacing" textLength="73" x="1327" y="253.7038">Deploy App</text></g><!--MD5=[e7837f2cd9808b5be5e64c6bcd6cf28d]
link HTML to GMN180--><g id="link_HTML_GMN180"><path d="M1042.5,230.3069 C1042.5,240.5269 1042.5,250.2969 1042.5,250.2969 C1042.5,250.2969 1585.17,250.2969 1585.17,250.2969 C1585.17,250.2969 1585.17,232.6469 1585.17,219.9669 " fill="none" id="HTML-GMN180" style="stroke:#000080;stroke-width:1.0;stroke-dasharray:7.0,7.0;"/></g><!--MD5=[d55d9ea17d28bf49691b4343fcd8af65]
link Bootstrap to GMN183--><g id="link_Bootstrap_GMN183"><path d="M1134,290.2869 C1134,280.0669 1134,270.2969 1134,270.2969 C1134,270.2969 1656.83,270.2969 1656.83,270.2969 C1656.83,270.2969 1656.83,287.9469 1656.83,300.6269 " fill="none" id="Bootstrap-GMN183" style="stroke:#000080;stroke-width:1.0;stroke-dasharray:7.0,7.0;"/></g><!--MD5=[d40ac8ce16754be737784c8be1e41f14]
link IntegrateML to GMN186--><g id="link_IntegrateML_GMN186"><path d="M1262.25,184.2069 C1262.25,169.9269 1262.25,154.2969 1262.25,154.2969 C1262.25,154.2969 1980,154.2969 1980,154.2969 C1980,154.2969 1980,179.0669 1980,194.7369 " fill="none" id="IntegrateML-GMN186" style="stroke:#000080;stroke-width:1.0;stroke-dasharray:7.0,7.0;"/></g><!--MD5=[1fd1b23f94eb00fadd86b6f97876c49f]
link Deploy to GMN189--><g id="link_Deploy_GMN189"><path d="M1478.31,190.2969 C1725.72,190.2969 2482,190.2969 2482,190.2969 C2482,190.2969 2482,192.1269 2482,194.5869 " fill="none" id="Deploy-GMN189" style="stroke:#000080;stroke-width:1.0;stroke-dasharray:7.0,7.0;"/></g><!--MD5=[01267d2173b553dc6a1baae9f3e00307]
@startuml
skinparam linetype ortho
skinparam packageBackgroundColor #F0F8FF
skinparam componentBackgroundColor #E6E6FA
skinparam componentFontColor #000000
skinparam componentArrowColor #000080

title Face Recognition Project End-to-End Diagram

package "Training the Face Recognition Model" {
    component "Data Gathering" as DG #FFD700
    component "Data Preprocessing" as DP #FFA07A
    component "Feature Engineering" as FE #87CEEB
    component "Machine Learning Model" as ML #98FB98
    component "Create ML Pipeline" as CMLP #FFB6C1

    DG - -> DP : "Raw Face Images"
    DP - -> FE : "Preprocessed Images"
    FE - -> ML : "Extracted Features"
    ML - -> CMLP : "Trained Model"
    CMLP - -> ML : "Test & Validate"
}

package "Web Application" {
    component "Flask (Backend)" as Flask #ADD8E6
    component "HTML (Frontend)" as HTML #FFE4B5
    component "Bootstrap (Styling)" as Bootstrap #FFC0CB
    component "Integrate ML Model" as IntegrateML #90EE90

    Flask - -> HTML : "Render Templates"
    HTML - -> Bootstrap : "Apply Styles"
    Flask - -> IntegrateML : "Load Model"
    IntegrateML - -> Flask : "Predictions"
}

package "Deployment" {
    component "Heroku Cloud" as Heroku #DDA0DD
    component "Deploy Web App" as Deploy #FFA07A

    Flask - -> Deploy : "Push Code"
    Deploy - -> Heroku : "Deploy App"
}

note right of DG
    Data Gathering: Collecting a diverse and representative dataset of face images.
end note

note right of DP
    Data Preprocessing: Cleaning, resizing, and normalizing images for consistency.
end note

note right of FE
    Feature Engineering: Extracting meaningful features to represent faces effectively.
end note

note right of ML
    Machine Learning Model: Training a model to recognize and distinguish faces.
end note

note right of CMLP
    Create ML Pipeline: Building a streamlined workflow for training and testing.
end note

note right of Flask
    Flask: Web Server Gateway Interface for backend logic.
end note

note right of HTML
    HTML: Layout for the frontend.
end note

note right of Bootstrap
    Bootstrap: Styling for the frontend.
end note

note right of IntegrateML
    Integrate ML Model: Loading the trained model into the web app.
end note

note right of Deploy
    Deploy Web App: Uploading and linking the code to Heroku for deployment.
end note
@enduml

PlantUML version 1.2022.7(Mon Aug 22 17:01:30 UTC 2022)
(GPL source distribution)
Java Runtime: OpenJDK Runtime Environment
JVM: OpenJDK 64-Bit Server VM
Default Encoding: UTF-8
Language: en
Country: null
--></g></svg>